<?xml version="1.0" encoding="utf-8"?>
<!-- Generator: Adobe Illustrator 24.0.1, SVG Export Plug-In . SVG Version: 6.00 Build 0)  -->
<svg version="1.1" id="Layer_1" xmlns="http://www.w3.org/2000/svg" xmlns:xlink="http://www.w3.org/1999/xlink" x="0px" y="0px"
	 viewBox="0 0 45.1 45.1" style="enable-background:new 0 0 45.1 45.1;" xml:space="preserve">
<g id="_ionicons_svg_ios-checkbox-outline" transform="translate(-64 -64)">
	<path id="Path_430" d="M105.3,64H67.8c-2.1,0-3.8,1.7-3.8,3.7c0,0,0,0,0,0v37.6c0,2.1,1.7,3.8,3.7,3.8c0,0,0,0,0,0h37.6
		c2.1,0,3.8-1.7,3.8-3.7c0,0,0,0,0,0V67.8C109.1,65.7,107.4,64,105.3,64C105.3,64,105.3,64,105.3,64z M105.8,104.8
		c0,0.5-0.4,0.9-0.9,0.9H68.2c-0.5,0-0.9-0.4-0.9-0.9V68.2c0-0.5,0.4-0.9,0.9-0.9h36.6c0.5,0,0.9,0.4,0.9,0.9L105.8,104.8z"/>
	<path id="Path_431" d="M99.2,79.1L97.1,77c-0.1-0.1-0.2-0.1-0.3-0.1c-0.1,0-0.2,0-0.3,0.1L82.1,91.4l-5.2-5.2
		c-0.2-0.2-0.5-0.2-0.6,0c0,0,0,0,0,0l-2.1,2.1c-0.2,0.2-0.2,0.5,0,0.7c0,0,0,0,0,0l6.6,6.6c0.4,0.4,0.8,0.6,1.4,0.7
		c0.5,0,1-0.3,1.4-0.6h0l15.7-15.8C99.3,79.6,99.3,79.3,99.2,79.1z"/>
</g>
</svg>
