<?xml version="1.0" encoding="utf-8"?>
<!-- Generator: Adobe Illustrator 24.0.1, SVG Export Plug-In . SVG Version: 6.00 Build 0)  -->
<svg version="1.1" id="Layer_1" xmlns="http://www.w3.org/2000/svg" xmlns:xlink="http://www.w3.org/1999/xlink" x="0px" y="0px"
	 viewBox="0 0 45.1 45.1" style="enable-background:new 0 0 45.1 45.1;" xml:space="preserve">
<path id="Path_432" d="M41.3,0H3.8C1.7,0,0,1.7,0,3.7c0,0,0,0,0,0v37.6c0,2.1,1.7,3.8,3.7,3.8c0,0,0,0,0,0h37.6
	c2.1,0,3.8-1.7,3.8-3.7c0,0,0,0,0,0V3.8C45.1,1.7,43.4,0,41.3,0C41.3,0,41.3,0,41.3,0z M41.8,40.8c0,0.5-0.4,0.9-0.9,0.9H4.2
	c-0.5,0-0.9-0.4-0.9-0.9V4.2c0-0.5,0.4-0.9,0.9-0.9h36.6c0.5,0,0.9,0.4,0.9,0.9L41.8,40.8z"/>
</svg>
